<svg width="40" height="45" viewBox="0 0 40 45" fill="none" xmlns="http://www.w3.org/2000/svg">
  <circle cx="20" cy="20" r="20" fill="#6D6D6D"/>
  <mask id="mask0_4_53" style="mask-type:alpha" maskUnits="userSpaceOnUse" x="9" y="11" width="23" height="35">
    <path fill-rule="evenodd" clip-rule="evenodd" d="M24.2297 24.9985C26.1642 23.7367 27.4429 21.5534 27.4429 19.0714C27.4429 15.166 24.2769 12 20.3714 12C16.466 12 13.3 15.166 13.3 19.0714C13.3 21.5534 14.5787 23.7367 16.5132 24.9985C12.6958 26.5293 10 30.2641 10 34.6286C10 40.3566 14.6434 45 20.3714 45C26.0994 45 30.7429 40.3566 30.7429 34.6286C30.7429 30.2641 28.047 26.5293 24.2297 24.9985Z" fill="white"/>
    <path d="M24.2297 24.9985L23.6833 24.161C23.3709 24.3648 23.1979 24.7255 23.2345 25.0967C23.2711 25.4679 23.5113 25.7879 23.8575 25.9267L24.2297 24.9985ZM16.5132 24.9985L16.8854 25.9267C17.2316 25.7879 17.4717 25.4679 17.5083 25.0967C17.545 24.7255 17.3719 24.3648 17.0595 24.161L16.5132 24.9985ZM24.776 25.8361C26.9815 24.3975 28.4429 21.9054 28.4429 19.0714H26.4429C26.4429 21.2014 25.3469 23.0759 23.6833 24.161L24.776 25.8361ZM28.4429 19.0714C28.4429 14.6137 24.8292 11 20.3714 11V13C23.7246 13 26.4429 15.7183 26.4429 19.0714H28.4429ZM20.3714 11C15.9137 11 12.3 14.6137 12.3 19.0714H14.3C14.3 15.7183 17.0183 13 20.3714 13V11ZM12.3 19.0714C12.3 21.9054 13.7613 24.3975 15.9668 25.8361L17.0595 24.161C15.396 23.0759 14.3 21.2014 14.3 19.0714H12.3ZM16.141 24.0704C11.9574 25.7481 9 29.8417 9 34.6286H11C11 30.6865 13.4343 27.3106 16.8854 25.9267L16.141 24.0704ZM9 34.6286C9 40.9088 14.0912 46 20.3714 46V44C15.1957 44 11 39.8043 11 34.6286H9ZM20.3714 46C26.6517 46 31.7429 40.9088 31.7429 34.6286H29.7429C29.7429 39.8043 25.5471 44 20.3714 44V46ZM31.7429 34.6286C31.7429 29.8417 28.7855 25.7481 24.6019 24.0704L23.8575 25.9267C27.3086 27.3106 29.7429 30.6865 29.7429 34.6286H31.7429Z" fill="white"/>
  </mask>
  <g mask="url(#mask0_4_53)">
    <circle cx="20.3714" cy="19.5429" r="18.8571" fill="white"/>
  </g>
</svg>